<svg width="24" height="25" viewBox="0 0 24 25" fill="none" xmlns="http://www.w3.org/2000/svg">
<path fill-rule="evenodd" clip-rule="evenodd" d="M8.12 3.42148C8.05278 3.41088 7.98445 3.40927 7.9168 3.41668C6.5712 3.56228 4.5232 4.28868 3.3136 4.94468C3.23371 4.98825 3.1622 5.04568 3.1024 5.11428C2.6 5.68868 2.144 6.62468 1.7872 7.51108C1.4192 8.41988 1.1152 9.37988 0.944001 10.0743C0.377601 12.3303 0.0688016 15.0391 0.0272016 17.6087C0.0258781 17.7369 0.0566815 17.8634 0.116802 17.9767C0.596802 18.8935 1.632 19.7431 2.6688 20.3639C3.7168 20.9927 4.9408 21.4887 5.9264 21.5847C6.04449 21.5959 6.16358 21.5797 6.27435 21.5372C6.38511 21.4948 6.48453 21.4272 6.5648 21.3399C6.8112 21.0727 7.2304 20.4487 7.5472 19.9639C7.6912 19.7431 7.8272 19.5319 7.9328 19.3639C8.992 19.5559 10.32 19.6679 12 19.6679C13.6768 19.6679 15.0048 19.5559 16.064 19.3639C16.1696 19.5335 16.304 19.7431 16.448 19.9623C16.7648 20.4487 17.184 21.0727 17.432 21.3399C17.5123 21.4272 17.6117 21.4948 17.7225 21.5372C17.8332 21.5797 17.9523 21.5959 18.0704 21.5847C19.056 21.4887 20.2784 20.9927 21.3264 20.3639C22.3632 19.7431 23.3984 18.8935 23.88 17.9767C23.9396 17.8633 23.9698 17.7368 23.968 17.6087C23.928 15.0391 23.6176 12.3287 23.0544 10.0727C22.8281 9.20137 22.5454 8.3457 22.208 7.51108C21.8512 6.62468 21.3952 5.68708 20.8944 5.11428C20.8341 5.04553 20.7621 4.98809 20.6816 4.94468C19.4736 4.28868 17.4256 3.56228 16.0784 3.41668C16.0113 3.40941 15.9435 3.41102 15.8768 3.42148C15.5753 3.47951 15.2924 3.61022 15.0528 3.80228C14.5161 4.23433 14.0822 4.7803 13.7824 5.40068C13.1894 5.35416 12.5948 5.33121 12 5.33188C11.3568 5.33188 10.7616 5.35588 10.2128 5.39908C9.91284 4.77928 9.47892 4.23387 8.9424 3.80228C8.70325 3.61045 8.42099 3.47976 8.12 3.42148ZM17.6288 18.9607C17.854 19.3075 18.0849 19.6504 18.3216 19.9895C18.9552 19.8455 19.7632 19.5095 20.5376 19.0455C21.4064 18.5255 22.096 17.9255 22.4288 17.4183C22.376 15.0087 22.0784 12.5063 21.5648 10.4455C21.3556 9.64283 21.0948 8.85452 20.784 8.08548C20.464 7.28868 20.12 6.61348 19.8208 6.22628C18.7808 5.68708 17.1408 5.11748 16.072 4.96228C16.0398 4.98178 16.0089 5.00315 15.9792 5.02628C15.8466 5.13058 15.7254 5.24856 15.6176 5.37828C15.5545 5.45338 15.4942 5.53077 15.4368 5.61028C15.9248 5.69988 16.36 5.80708 16.7456 5.92548C17.84 6.26148 18.6288 6.72548 19.0144 7.23908C19.1366 7.40202 19.1891 7.60685 19.1603 7.80849C19.1315 8.01013 19.0238 8.19206 18.8608 8.31428C18.7801 8.37479 18.6883 8.41882 18.5906 8.44385C18.4929 8.46888 18.3912 8.47442 18.2914 8.46016C18.0898 8.43135 17.9078 8.32363 17.7856 8.16068C17.6912 8.03588 17.28 7.69668 16.2944 7.39268C15.3424 7.10148 13.9424 6.86788 12 6.86788C10.0576 6.86788 8.656 7.10148 7.7056 7.39428C6.72 7.69828 6.3088 8.03428 6.2144 8.16068C6.15389 8.24136 6.07808 8.30934 5.99129 8.36072C5.90451 8.41211 5.80845 8.44589 5.70861 8.46016C5.50697 8.48896 5.30215 8.43649 5.1392 8.31428C5.05852 8.25376 4.99054 8.17795 4.93916 8.09117C4.88777 8.00438 4.85398 7.90833 4.83972 7.80849C4.81091 7.60685 4.86339 7.40202 4.9856 7.23908C5.3712 6.72388 6.16 6.26308 7.2544 5.92708C7.6384 5.80708 8.0736 5.70148 8.56 5.61188C8.50249 5.5315 8.44164 5.45356 8.3776 5.37828C8.27028 5.24864 8.14961 5.13066 8.0176 5.02628C7.98742 5.0031 7.9559 4.98173 7.9232 4.96228C6.856 5.11748 5.216 5.68708 4.176 6.22628C3.8752 6.61508 3.5328 7.28868 3.2112 8.08548C2.8704 8.93348 2.5872 9.82468 2.432 10.4455C1.9168 12.5063 1.6192 15.0087 1.568 17.4183C1.9008 17.9271 2.5888 18.5255 3.4576 19.0471C4.2336 19.5111 5.04 19.8471 5.6752 19.9895C5.91425 19.6521 6.14525 19.309 6.368 18.9607C5.112 18.5143 4.4384 17.9015 4 17.2455C3.94411 17.1614 3.90532 17.0672 3.88585 16.9682C3.86638 16.8691 3.8666 16.7672 3.88651 16.6683C3.90642 16.5693 3.94562 16.4753 4.00188 16.3915C4.05814 16.3077 4.13036 16.2358 4.2144 16.1799C4.29845 16.124 4.39268 16.0852 4.49172 16.0657C4.59075 16.0463 4.69266 16.0465 4.79161 16.0664C4.89056 16.0863 4.98462 16.1255 5.06841 16.1818C5.15221 16.238 5.22411 16.3102 5.28 16.3943C5.696 17.0215 6.7904 18.1319 12 18.1319C17.2112 18.1319 18.304 17.0215 18.72 16.3943C18.8329 16.2245 19.0086 16.1066 19.2084 16.0664C19.4082 16.0262 19.6159 16.067 19.7856 16.1799C19.9553 16.2928 20.0733 16.4684 20.1135 16.6683C20.1537 16.8681 20.1129 17.0757 20 17.2455C19.5616 17.9015 18.8864 18.5159 17.6288 18.9607ZM6.528 11.7191C6.9184 11.2999 7.448 11.0631 8 11.0599C8.552 11.0631 9.0816 11.2999 9.472 11.7191C9.8608 12.1399 10.08 12.7079 10.08 13.2999C10.08 13.8919 9.8608 14.4599 9.472 14.8807C9.0816 15.2999 8.552 15.5367 8 15.5399C7.72253 15.5369 7.44864 15.4769 7.19538 15.3635C6.94213 15.2501 6.71495 15.0857 6.528 14.8807C6.13377 14.4489 5.91669 13.8845 5.92 13.2999C5.92 12.7079 6.1392 12.1399 6.528 11.7191ZM16 11.0599C15.448 11.0631 14.9184 11.2999 14.528 11.7191C14.1392 12.1399 13.92 12.7079 13.92 13.2999C13.92 13.8919 14.1392 14.4599 14.528 14.8807C14.9184 15.2999 15.448 15.5367 16 15.5399C16.552 15.5367 17.0816 15.2999 17.472 14.8807C17.8608 14.4599 18.08 13.8919 18.08 13.2999C18.08 12.7079 17.8608 12.1399 17.472 11.7191C17.285 11.514 17.0579 11.3497 16.8046 11.2363C16.5514 11.1228 16.2775 11.0628 16 11.0599Z" fill="white"/>
</svg>
