<svg width="24" height="25" viewBox="0 0 24 25" fill="none" xmlns="http://www.w3.org/2000/svg">
<path d="M23.1938 6.95925C23.1364 6.82275 23.0399 6.70629 22.9164 6.62454C22.793 6.54279 22.6481 6.49942 22.5 6.49988H19.65C19.308 5.90318 18.8332 5.39321 18.2625 5.00947C17.6917 4.62572 17.0403 4.3785 16.3586 4.28695C15.677 4.1954 14.9834 4.26198 14.3316 4.48152C13.6798 4.70107 13.0873 5.06769 12.6 5.553C12.1733 5.96904 11.8341 6.46616 11.6023 7.01515C11.3704 7.56415 11.2507 8.15394 11.25 8.74988V9.32175C7.43438 8.328 4.31251 5.253 4.28438 5.2155C4.18632 5.11903 4.0636 5.05138 3.92967 5.01996C3.79574 4.98854 3.65574 4.99457 3.52501 5.03738C3.39468 5.07885 3.27798 5.15475 3.18722 5.25706C3.09646 5.35937 3.03502 5.48429 3.00938 5.61863C2.19376 10.1374 3.55313 13.1655 4.83751 14.9093C5.48171 15.791 6.26358 16.5634 7.15313 17.1968C5.71876 18.8186 3.50626 19.6624 3.48751 19.6718C3.3817 19.711 3.28612 19.7736 3.20788 19.8549C3.12963 19.9362 3.07074 20.0341 3.0356 20.1414C3.00046 20.2486 2.98996 20.3624 3.0049 20.4742C3.01984 20.5861 3.05983 20.6931 3.12188 20.7874C3.19688 20.8999 3.47813 21.2655 4.16251 21.6124C5.01563 22.0343 6.14063 22.2499 7.50001 22.2499C14.1094 22.2499 19.6406 17.1593 20.2031 10.6061L23.0344 7.78425C23.1361 7.67582 23.2051 7.54079 23.2333 7.39479C23.2615 7.24879 23.2478 7.09779 23.1938 6.95925ZM18.9469 9.74363C18.8162 9.87321 18.7392 10.0473 18.7313 10.2311C18.3469 16.128 13.4156 20.7499 7.50001 20.7499C6.50626 20.7499 5.81251 20.6186 5.32501 20.4593C6.40313 19.878 7.90313 18.8655 8.87813 17.4124C8.93473 17.3244 8.9723 17.2256 8.98845 17.1223C9.0046 17.019 8.99895 16.9134 8.97188 16.8124C8.94459 16.7103 8.89631 16.6151 8.83012 16.5328C8.76394 16.4504 8.68131 16.3828 8.58751 16.3343C8.57813 16.3249 7.19063 15.603 6.00001 13.9624C4.65001 12.1061 4.07813 9.84676 4.30313 7.2405C5.78438 8.45926 8.61563 10.4468 11.8781 10.9905C11.9859 11.0078 12.0961 11.0017 12.2012 10.9726C12.3064 10.9435 12.404 10.892 12.4875 10.8218C12.5691 10.7503 12.6347 10.6625 12.6799 10.5639C12.7252 10.4653 12.7491 10.3583 12.75 10.2499V8.74988C12.7514 8.06175 12.9893 7.39502 13.4239 6.86146C13.8584 6.32791 14.4632 5.95996 15.1368 5.8193C15.8104 5.67865 16.5119 5.77384 17.1236 6.08892C17.7354 6.404 18.2202 6.91981 18.4969 7.54988C18.5567 7.6839 18.654 7.79773 18.7771 7.87759C18.9003 7.95745 19.0439 7.99993 19.1906 7.99988H20.6906L18.9469 9.74363Z" fill="white"/>
</svg>
