<svg width="19" height="18" viewBox="0 0 19 18" fill="none" xmlns="http://www.w3.org/2000/svg">
<path d="M15.9882 5.23353H4.35859C4.16582 5.23353 3.98094 5.16004 3.84463 5.02924C3.70832 4.89843 3.63174 4.72102 3.63174 4.53604C3.63174 4.35105 3.70832 4.17364 3.84463 4.04284C3.98094 3.91203 4.16582 3.83855 4.35859 3.83855H14.2438C14.3594 3.83855 14.4704 3.79446 14.5521 3.71597C14.6339 3.63749 14.6799 3.53104 14.6799 3.42005C14.6799 3.30906 14.6339 3.20261 14.5521 3.12413C14.4704 3.04565 14.3594 3.00156 14.2438 3.00156H4.35859C3.93508 3.00339 3.52946 3.16565 3.22999 3.45302C2.93052 3.7404 2.76143 4.12963 2.75952 4.53604V13.4639C2.76143 13.8703 2.93052 14.2596 3.22999 14.5469C3.52946 14.8343 3.93508 14.9966 4.35859 14.9984H15.9882C16.2581 14.9984 16.5169 14.8955 16.7077 14.7124C16.8986 14.5293 17.0058 14.2809 17.0058 14.0219V6.21002C17.0058 5.95104 16.8986 5.70266 16.7077 5.51954C16.5169 5.33641 16.2581 5.23353 15.9882 5.23353V5.23353ZM16.1336 14.0219C16.1336 14.0589 16.1183 14.0944 16.091 14.1206C16.0637 14.1467 16.0268 14.1614 15.9882 14.1614H4.35859C4.16582 14.1614 3.98094 14.0879 3.84463 13.9571C3.70832 13.8263 3.63174 13.6489 3.63174 13.4639V5.90312C3.85713 6.0125 4.10603 6.06983 4.35859 6.07052H15.9882C16.0268 6.07052 16.0637 6.08522 16.091 6.11138C16.1183 6.13754 16.1336 6.17302 16.1336 6.21002V14.0219ZM14.0984 10.116C14.0984 10.2539 14.0558 10.3888 13.9759 10.5035C13.896 10.6182 13.7825 10.7076 13.6497 10.7604C13.5169 10.8132 13.3707 10.827 13.2297 10.8001C13.0887 10.7731 12.9592 10.7067 12.8576 10.6092C12.7559 10.5116 12.6867 10.3873 12.6587 10.252C12.6306 10.1167 12.645 9.9765 12.7 9.84906C12.755 9.72161 12.8482 9.61267 12.9677 9.53603C13.0873 9.45939 13.2278 9.41848 13.3715 9.41848C13.5643 9.41848 13.7492 9.49197 13.8855 9.62277C14.0218 9.75358 14.0984 9.93099 14.0984 10.116Z" fill="white"/>
</svg>
